<svg width="12" height="14" viewBox="0 0 12 14" fill="none" xmlns="http://www.w3.org/2000/svg">
<path fill-rule="evenodd" clip-rule="evenodd" d="M0.333496 5.87852C0.333496 2.81194 2.89608 0.333344 5.99579 0.333344C9.10424 0.333344 11.6668 2.81194 11.6668 5.87852C11.6668 7.4238 11.1048 8.85843 10.1798 10.0744C9.15937 11.4157 7.9016 12.5843 6.48586 13.5016C6.16184 13.7136 5.86941 13.7296 5.5138 13.5016C4.08999 12.5843 2.83222 11.4157 1.8205 10.0744C0.894818 8.85843 0.333496 7.4238 0.333496 5.87852ZM4.12961 6.05118C4.12961 7.07848 4.9679 7.88646 5.99576 7.88646C7.02429 7.88646 7.87064 7.07848 7.87064 6.05118C7.87064 5.03188 7.02429 4.18457 5.99576 4.18457C4.9679 4.18457 4.12961 5.03188 4.12961 6.05118Z" fill="#2C2D5B"/>
</svg>
