<svg width="23" height="19" viewBox="0 0 23 19" fill="none" xmlns="http://www.w3.org/2000/svg">
<path fill-rule="evenodd" clip-rule="evenodd" d="M4.78896 0.950012H11.3919C14.153 0.950012 16.0808 2.85271 16.0808 5.57945V13.4206C16.0808 16.1473 14.153 18.05 11.3919 18.05H4.78896C2.02786 18.05 0.100098 16.1473 0.100098 13.4206V5.57945C0.100098 2.85271 2.02786 0.950012 4.78896 0.950012ZM20.5722 3.66205C21.0726 3.40743 21.6598 3.43405 22.1374 3.73497C22.6151 4.03472 22.9001 4.55554 22.9001 5.12496V13.8758C22.9001 14.4463 22.6151 14.966 22.1374 15.2657C21.8764 15.4289 21.5845 15.5123 21.2904 15.5123C21.0453 15.5123 20.8002 15.4544 20.571 15.3375L18.8827 14.4857C18.258 14.1686 17.8704 13.532 17.8704 12.8249V6.17468C17.8704 5.46638 18.258 4.82983 18.8827 4.51503L20.5722 3.66205Z" fill="#2C2D5B"/>
</svg>
